<?xml version="1.0" encoding="UTF-8" standalone="no"?>
<svg
   xmlns:dc="http://purl.org/dc/elements/1.1/"
   xmlns:cc="http://creativecommons.org/ns#"
   xmlns:rdf="http://www.w3.org/1999/02/22-rdf-syntax-ns#"
   xmlns:svg="http://www.w3.org/2000/svg"
   xmlns="http://www.w3.org/2000/svg"
   xmlns:sodipodi="http://sodipodi.sourceforge.net/DTD/sodipodi-0.dtd"
   xmlns:inkscape="http://www.inkscape.org/namespaces/inkscape"
   enable-background="new 0 0 32 32"
   version="1.1"
   viewBox="0 0 32 32"
   xml:space="preserve"
   id="svg900"
   sodipodi:docname="pinLocation.svg"
   inkscape:version="0.92.3 (2405546, 2018-03-11)"><metadata
     id="metadata906"><rdf:RDF><cc:Work
         rdf:about=""><dc:format>image/svg+xml</dc:format><dc:type
           rdf:resource="http://purl.org/dc/dcmitype/StillImage" /><dc:title></dc:title></cc:Work></rdf:RDF></metadata><defs
     id="defs904"><pattern
       y="0"
       x="0"
       height="6"
       width="6"
       patternUnits="userSpaceOnUse"
       id="EMFhbasepattern" /></defs><sodipodi:namedview
     pagecolor="#ffffff"
     bordercolor="#666666"
     borderopacity="1"
     objecttolerance="10"
     gridtolerance="10"
     guidetolerance="10"
     inkscape:pageopacity="0"
     inkscape:pageshadow="2"
     inkscape:window-width="1366"
     inkscape:window-height="705"
     id="namedview902"
     showgrid="false"
     inkscape:zoom="7.375"
     inkscape:cx="-8.3389827"
     inkscape:cy="16"
     inkscape:window-x="-8"
     inkscape:window-y="-8"
     inkscape:window-maximized="1"
     inkscape:current-layer="svg900" /><path
     d="m 16,5.534 c -3.73,0 -6.754,3.024 -6.754,6.754 0,0.625 0.085,1.231 0.244,1.806 0.064,0.23 0.139,0.456 0.226,0.675 L 9.921,15.234 16,26.466 22.087,15.217 22.272,14.798 c 0.092,-0.229 0.171,-0.464 0.238,-0.705 0.159,-0.575 0.244,-1.18 0.244,-1.806 C 22.754,8.558 19.73,5.534 16,5.534 Z m 0,9.68 c -1.65,0 -2.988,-1.338 -2.988,-2.988 0,-1.65 1.338,-2.988 2.988,-2.988 1.65,0 2.988,1.338 2.988,2.988 0,1.651 -1.338,2.988 -2.988,2.988 z"
     id="path895"
     inkscape:connector-curvature="0"
     style="fill:#1d6f93;fill-opacity:1"
     inkscape:export-filename="C:\Repos\CurriculumVitae\img\pinLocation.png"
     inkscape:export-xdpi="293.52188"
     inkscape:export-ydpi="293.52188" /></svg>