<?xml version="1.0" encoding="UTF-8" standalone="no"?>
<svg
   xmlns:dc="http://purl.org/dc/elements/1.1/"
   xmlns:cc="http://creativecommons.org/ns#"
   xmlns:rdf="http://www.w3.org/1999/02/22-rdf-syntax-ns#"
   xmlns:svg="http://www.w3.org/2000/svg"
   xmlns="http://www.w3.org/2000/svg"
   xmlns:sodipodi="http://sodipodi.sourceforge.net/DTD/sodipodi-0.dtd"
   xmlns:inkscape="http://www.inkscape.org/namespaces/inkscape"
   enable-background="new 0 0 64 64"
   height="64px"
   id="Layer_1"
   version="1.1"
   viewBox="0 0 64 64"
   width="64px"
   xml:space="preserve"
   sodipodi:docname="guitar.svg"
   inkscape:version="0.92.3 (2405546, 2018-03-11)"><metadata
     id="metadata1693"><rdf:RDF><cc:Work
         rdf:about=""><dc:format>image/svg+xml</dc:format><dc:type
           rdf:resource="http://purl.org/dc/dcmitype/StillImage" /><dc:title></dc:title></cc:Work></rdf:RDF></metadata><defs
     id="defs1691" /><sodipodi:namedview
     pagecolor="#ffffff"
     bordercolor="#666666"
     borderopacity="1"
     objecttolerance="10"
     gridtolerance="10"
     guidetolerance="10"
     inkscape:pageopacity="0"
     inkscape:pageshadow="2"
     inkscape:window-width="1366"
     inkscape:window-height="705"
     id="namedview1689"
     showgrid="false"
     inkscape:zoom="8.375"
     inkscape:cx="21.497965"
     inkscape:cy="33.187322"
     inkscape:window-x="-8"
     inkscape:window-y="-8"
     inkscape:window-maximized="1"
     inkscape:current-layer="Layer_1" /><g
     transform="matrix(2.5578933,0,0,2.5578933,-247.22484,-531.45618)"
     style="display:inline"
     id="g14411"><path
       inkscape:connector-curvature="0"
       style="fill:#ffd56b;fill-opacity:1;stroke:#e9b225;stroke-width:0.40481251;stroke-miterlimit:4;stroke-dasharray:none;stroke-opacity:1"
       id="path1686-4"
       d="m 108.88033,227.69404 c -7.3e-4,-0.001 2e-5,-0.002 -5e-5,-0.003 -0.0129,-0.59343 -0.0974,-1.5739 -0.11782,-1.80304 -0.003,-0.0297 -0.004,-0.0437 -0.004,-0.0455 0.0881,-0.60598 0.28386,-1.29292 0.68661,-1.92599 0.37342,-0.48445 1.042,-0.73806 1.042,-0.73806 l -0.005,-0.008 c 0.35113,-0.15716 0.66434,-0.3837 0.90424,-0.69536 0.79084,-1.02742 0.59033,-2.5481 -0.38836,-3.68294 l 4.25314,-5.52545 c 0.38773,-0.50371 0.61076,-0.57107 0.70932,-0.56826 0.014,0.003 0.0287,0.003 0.0432,0.006 0.011,0.003 0.0186,0.007 0.0186,0.007 l 0.004,-0.006 c 0.20266,0.0276 0.41247,-0.0416 0.54592,-0.21494 l 1.48709,-1.93194 c 0.19903,-0.25857 0.15074,-0.62976 -0.10784,-0.8288 l -1.28829,-0.99164 c -0.25857,-0.19904 -0.63002,-0.15041 -0.8288,0.10783 l -1.48709,1.93194 c -0.13546,0.17599 -0.14771,0.40142 -0.0649,0.59147 l -0.005,0.003 c 0,0 0.007,0.009 0.0143,0.0241 0.004,0.007 0.004,0.0148 0.008,0.0214 0.0263,0.0907 0.0212,0.33313 -0.39879,0.8788 l -4.21934,5.48153 c -1.34815,-0.65622 -2.86918,-0.46068 -3.66003,0.56674 -0.24091,0.31298 -0.38084,0.67445 -0.44292,1.05411 l -0.01,-2.1e-4 c 0,0 -0.19711,0.94427 -0.8293,1.53641 -0.45482,0.38475 -0.95034,0.64475 -1.40862,0.83059 -0.17579,0.0338 -1.26316,0.23955 -1.70992,0.3372 -0.002,3e-4 -0.003,0.002 -0.005,0.002 -0.92784,0.14903 -1.74,0.57969 -2.28968,1.2938 -1.415192,1.83854 -0.578235,4.86682 1.87675,6.75651 2.45368,1.88869 5.59637,1.92421 7.01181,0.0854 0.55145,-0.71641 0.76042,-1.61032 0.66651,-2.54739 z" /><circle
       transform="rotate(37.586833)"
       r="1.2839184"
       cy="110.62466"
       cx="220.58221"
       id="path1742-6"
       style="opacity:1;fill:#ffecba;fill-opacity:0.98431373;stroke:#e9b225;stroke-width:0.18757185;stroke-miterlimit:4;stroke-dasharray:none;stroke-opacity:1" /><rect
       transform="rotate(37.586833)"
       y="115.64923"
       x="219.002"
       height="0.88886666"
       width="3.4073219"
       id="rect1744-7"
       style="opacity:1;fill:#e9b225;fill-opacity:1;stroke:none;stroke-width:1.50839019;stroke-miterlimit:4;stroke-dasharray:none;stroke-opacity:1" /></g></svg>