<?xml version="1.0" encoding="UTF-8" standalone="no"?>
<svg
   xmlns:dc="http://purl.org/dc/elements/1.1/"
   xmlns:cc="http://creativecommons.org/ns#"
   xmlns:rdf="http://www.w3.org/1999/02/22-rdf-syntax-ns#"
   xmlns:svg="http://www.w3.org/2000/svg"
   xmlns="http://www.w3.org/2000/svg"
   xmlns:sodipodi="http://sodipodi.sourceforge.net/DTD/sodipodi-0.dtd"
   xmlns:inkscape="http://www.inkscape.org/namespaces/inkscape"
   viewBox="0 0 128 128"
   version="1.1"
   id="svg1525"
   sodipodi:docname="basketball.svg"
   inkscape:version="0.92.3 (2405546, 2018-03-11)">
  <metadata
     id="metadata1529">
    <rdf:RDF>
      <cc:Work
         rdf:about="">
        <dc:format>image/svg+xml</dc:format>
        <dc:type
           rdf:resource="http://purl.org/dc/dcmitype/StillImage" />
        <dc:title></dc:title>
      </cc:Work>
    </rdf:RDF>
  </metadata>
  <sodipodi:namedview
     pagecolor="#ffffff"
     bordercolor="#666666"
     borderopacity="1"
     objecttolerance="10"
     gridtolerance="10"
     guidetolerance="10"
     inkscape:pageopacity="0"
     inkscape:pageshadow="2"
     inkscape:window-width="1366"
     inkscape:window-height="705"
     id="namedview1527"
     showgrid="false"
     inkscape:zoom="4.1875"
     inkscape:cx="35.940299"
     inkscape:cy="64"
     inkscape:window-x="-8"
     inkscape:window-y="-8"
     inkscape:window-maximized="1"
     inkscape:current-layer="svg1525" />
  <defs
     id="defs1492">
    <style
       id="style1490">.cls-1{fill:#f47c27;}.cls-2{fill:#f69652;}.cls-3{fill:#d2423f;}.cls-4{fill:#333;}.cls-5{fill:#4d4d4d;}.cls-6{fill:#1f1f1f;}</style>
  </defs>
  <g
     id="g866">
    <circle
       class="cls-1"
       cx="-0.00023492954"
       cy="90.50943"
       r="48"
       transform="rotate(-45)"
       id="circle1496"
       style="fill:#eb4a25;fill-opacity:0.98431373" />
    <path
       class="cls-4"
       d="m 77,79.85 19.49,19.47 a 39.63,39.63 0 0 0 2.83,-2.83 L 79.85,77 A 2.2,2.2 0 0 1 80,73.77 45.94,45.94 0 0 1 112,63.37 c 0,-1.34 -0.08,-2.68 -0.21,-4 a 49.91,49.91 0 0 0 -34.94,11.82 2.18,2.18 0 0 1 -3,-0.13 l -5.51,-5.51 a 2.2,2.2 0 0 1 0,-3.1 L 99.32,31.51 A 39.63,39.63 0 0 0 96.49,28.68 L 65.55,59.62 a 2.2,2.2 0 0 1 -3.1,0 l -5.51,-5.51 a 2.18,2.18 0 0 1 -0.13,-3 49.91,49.91 0 0 0 11.83,-34.89 c -1.33,-0.13 -2.67,-0.19 -4,-0.21 a 45.94,45.94 0 0 1 -10.4,32 2.2,2.2 0 0 1 -3.25,0.15 L 31.51,28.68 a 39.63,39.63 0 0 0 -2.83,2.83 L 48.15,51 A 2.2,2.2 0 0 1 48,54.23 45.94,45.94 0 0 1 16,64.63 c 0,1.34 0.08,2.68 0.21,4 a 49.91,49.91 0 0 0 34.94,-11.82 2.18,2.18 0 0 1 3,0.13 l 5.51,5.51 a 2.2,2.2 0 0 1 0,3.1 L 28.68,96.49 a 39.63,39.63 0 0 0 2.83,2.83 L 62.45,68.38 a 2.2,2.2 0 0 1 3.1,0 l 5.51,5.51 a 2.18,2.18 0 0 1 0.13,3 49.91,49.91 0 0 0 -11.84,34.93 c 1.33,0.13 2.67,0.19 4,0.21 a 45.94,45.94 0 0 1 10.4,-32 2.2,2.2 0 0 1 3.25,-0.18 z"
       id="path1502"
       inkscape:connector-curvature="0"
       style="fill:#333333" />
    <path
       class="cls-5"
       d="m 68.67,17.31 c 0,-0.36 0,-0.73 0,-1.09 -0.3,0 -2.38,-0.19 -4,-0.21 0,0.39 0,0.78 0,1.16 1.33,0 2.67,0.05 4,0.14 z"
       id="path1504"
       inkscape:connector-curvature="0"
       style="fill:#4d4d4d" />
    <path
       class="cls-5"
       d="m 17.31,68.67 c -0.1,-1.33 -0.15,-2.66 -0.13,-4 h -1.16 c 0,1.68 0.16,3.63 0.21,4 z"
       id="path1506"
       inkscape:connector-curvature="0"
       style="fill:#4d4d4d" />
    <path
       class="cls-5"
       d="m 28.76,96.41 -0.08,0.08 c 1.35,1.47 1.31,1.38 2,2 C 30,97.83 29.37,97.13 28.76,96.41 Z"
       id="path1508"
       inkscape:connector-curvature="0"
       style="fill:#4d4d4d" />
    <path
       class="cls-5"
       d="m 29.85,32.68 c 1.1,-1.19 1.63,-1.72 2.83,-2.83 l -1.17,-1.17 a 39.63,39.63 0 0 0 -2.83,2.83 z"
       id="path1510"
       inkscape:connector-curvature="0"
       style="fill:#4d4d4d" />
    <path
       class="cls-5"
       d="m 96.41,28.76 c 0.71,0.61 1.41,1.24 2.1,1.9 -0.64,-0.67 -0.55,-0.63 -2,-2 z"
       id="path1512"
       inkscape:connector-curvature="0"
       style="fill:#4d4d4d" />
    <path
       class="cls-6"
       d="m 59.33,108 c 0,1.26 0,2.51 0,3.77 1.44,0.14 2.86,0.19 4,0.21 -0.08,-1.36 -0.09,-2.73 -0.05,-4.09 Q 61.32,108 59.33,108 Z"
       id="path1514"
       inkscape:connector-curvature="0"
       style="fill:#1f1f1f" />
    <path
       class="cls-6"
       d="m 96.42,28.75 c 0.88,1 1.72,2.07 2.5,3.15 l 0.4,-0.4 a 35.16,35.16 0 0 0 -2.84,-2.82 z"
       id="path1516"
       inkscape:connector-curvature="0"
       style="fill:#1f1f1f" />
    <path
       class="cls-6"
       d="m 112,63.37 c 0,-1.66 -0.18,-3.84 -0.21,-4 -1.26,-0.06 -2.51,-0.06 -3.77,0 q 0,2 -0.11,4 c 1.35,-0.09 2.71,-0.08 4.09,0 z"
       id="path1518"
       inkscape:connector-curvature="0"
       style="fill:#1f1f1f" />
    <path
       class="cls-6"
       d="m 31.91,98.92 c -1.08,-0.78 -2.13,-1.62 -3.15,-2.5 l -0.07,0.07 a 35.15,35.15 0 0 0 2.82,2.84 z"
       id="path1520"
       inkscape:connector-curvature="0"
       style="fill:#1f1f1f" />
    <path
       class="cls-6"
       d="m 95.34,92.51 c -1.07,1.16 -1.67,1.76 -2.83,2.83 l 4,4 a 39.63,39.63 0 0 0 2.83,-2.83 z"
       id="path1522"
       inkscape:connector-curvature="0"
       style="fill:#1f1f1f" />
  </g>
</svg>
