<?xml version="1.0" encoding="UTF-8" standalone="no"?>
<svg
   xmlns:dc="http://purl.org/dc/elements/1.1/"
   xmlns:cc="http://creativecommons.org/ns#"
   xmlns:rdf="http://www.w3.org/1999/02/22-rdf-syntax-ns#"
   xmlns:svg="http://www.w3.org/2000/svg"
   xmlns="http://www.w3.org/2000/svg"
   xmlns:sodipodi="http://sodipodi.sourceforge.net/DTD/sodipodi-0.dtd"
   xmlns:inkscape="http://www.inkscape.org/namespaces/inkscape"
   id="Layer_1"
   style="enable-background:new 0 0 70 70;"
   version="1.1"
   viewBox="0 0 70 70"
   xml:space="preserve"
   sodipodi:docname="school.svg"
   inkscape:version="0.92.3 (2405546, 2018-03-11)"><metadata
     id="metadata851"><rdf:RDF><cc:Work
         rdf:about=""><dc:format>image/svg+xml</dc:format><dc:type
           rdf:resource="http://purl.org/dc/dcmitype/StillImage" /><dc:title></dc:title></cc:Work></rdf:RDF></metadata><defs
     id="defs849"><pattern
       y="0"
       x="0"
       height="6"
       width="6"
       patternUnits="userSpaceOnUse"
       id="EMFhbasepattern" /></defs><sodipodi:namedview
     pagecolor="#ffffff"
     bordercolor="#666666"
     borderopacity="1"
     objecttolerance="10"
     gridtolerance="10"
     guidetolerance="10"
     inkscape:pageopacity="0"
     inkscape:pageshadow="2"
     inkscape:window-width="1366"
     inkscape:window-height="705"
     id="namedview847"
     showgrid="false"
     inkscape:zoom="7.6571429"
     inkscape:cx="13.843284"
     inkscape:cy="35"
     inkscape:window-x="-8"
     inkscape:window-y="-8"
     inkscape:window-maximized="1"
     inkscape:current-layer="Layer_1" /><style
     type="text/css"
     id="style834">
	.st0{fill:#D7D2D1;}
	.st1{fill:#5EA3D7;}
</style><path
     style="fill:#1d6f93;fill-opacity:1"
     inkscape:connector-curvature="0"
     id="path836"
     d="m 67,59.928757 h -1.599976 v -3.970032 c 0,-0.549988 -0.450012,-1 -1,-1 H 63.159973 C 63.030029,53.128769 61.729981,51.628769 60,51.198776 v -27.75 c 1.799988,-0.450012 3.140015,-2.050049 3.179993,-3.980041 h 2.299987 c 0.460022,0 0.869996,-0.320008 0.970032,-0.769959 0.109986,-0.460022 -0.109985,-0.920044 -0.530029,-1.130005 L 35.470032,2.6487274 c -0.28003,-0.1300049 -0.600037,-0.1300049 -0.880005,0 L 3.960022,17.568771 c -0.4200439,0.199952 -0.6400146,0.669983 -0.5300293,1.119995 0.1000366,0.459961 0.5,0.779969 0.9700317,0.779969 H 6.710022 C 6.75,21.398727 8.0900269,22.998764 9.8900146,23.448776 v 27.75 C 8.1599731,51.628769 6.8599853,53.128769 6.7299804,54.958725 H 5.0499878 c -0.5499878,0 -1,0.450012 -1,1 v 3.970032 H 3 c -0.5499878,0 -1,0.450012 -1,1 v 5.520019 c 0,0.549988 0.4500122,1 1,1 h 64 c 0.549988,0 1,-0.450012 1,-1 v -5.520019 c 0,-0.549988 -0.450012,-1 -1,-1 z M 51.51001,51.188766 c -0.460022,0.109986 -0.890015,0.309998 -1.28003,0.570008 -0.07001,0.03998 -0.119995,0.07996 -0.179992,0.130005 -0.149964,0.09998 -0.279969,0.209961 -0.409973,0.329956 l -0.179993,0.179992 c -0.110046,0.130005 -0.220032,0.26001 -0.320007,0.400025 -0.04999,0.06 -0.100037,0.119995 -0.140015,0.190002 -0.119995,0.179993 -0.219971,0.369995 -0.309998,0.570008 -0.01001,0.02997 -0.03003,0.04999 -0.03998,0.08002 -0.100036,0.22998 -0.170044,0.46997 -0.230041,0.71997 -0.01001,0.07001 -0.01996,0.150025 -0.02997,0.219971 -0.02002,0.130005 -0.04999,0.25 -0.06,0.380005 H 21.549988 c -0.01001,-0.130005 -0.03998,-0.25 -0.06,-0.380005 -0.01001,-0.06995 -0.01996,-0.149963 -0.02997,-0.219971 -0.06,-0.25 -0.130005,-0.48999 -0.230042,-0.71997 -0.0099,-0.02002 -0.01996,-0.05005 -0.02997,-0.07001 C 21.109985,53.358749 21,53.168747 20.880005,52.988754 c -0.03998,-0.07001 -0.09003,-0.130005 -0.140015,-0.190002 -0.09998,-0.140015 -0.209961,-0.27002 -0.330017,-0.400025 -0.04999,-0.06 -0.109985,-0.119995 -0.169983,-0.179992 -0.130005,-0.119995 -0.269958,-0.229981 -0.409973,-0.329956 -0.06,-0.05005 -0.109985,-0.09003 -0.179993,-0.130005 -0.390014,-0.26001 -0.820007,-0.460022 -1.280029,-0.570008 V 23.458725 c 0.190003,-0.04999 0.369995,-0.109985 0.549988,-0.179993 0.03003,-0.01996 0.06,-0.01996 0.09003,-0.03998 0.22998,-0.09003 0.450012,-0.220031 0.659973,-0.359985 0.06,-0.04004 0.110046,-0.08002 0.170044,-0.130005 0.149963,-0.100037 0.289978,-0.210022 0.409973,-0.340027 0.07001,-0.06 0.130005,-0.119995 0.190002,-0.190002 0.109986,-0.119995 0.210022,-0.239991 0.309998,-0.369995 0.04999,-0.08002 0.109985,-0.159974 0.159973,-0.229981 0.08002,-0.140015 0.160034,-0.290039 0.230042,-0.440002 0.03998,-0.08002 0.08002,-0.160035 0.109985,-0.239991 0.08002,-0.179992 0.130005,-0.369995 0.179993,-0.559997 0.01001,-0.06 0.04004,-0.110047 0.04999,-0.170044 0.04004,-0.23999 0.07001,-0.48999 0.08002,-0.73999 h 26.760009 c 0.01001,0.25 0.03998,0.5 0.08002,0.73999 0.0099,0.06 0.03998,0.110046 0.04999,0.170044 0.04999,0.190002 0.09998,0.380005 0.179993,0.559997 0.02997,0.07996 0.07001,0.159974 0.109985,0.239991 0.07001,0.149963 0.150025,0.299987 0.230042,0.429992 0.04999,0.08002 0.109985,0.159973 0.159973,0.239991 0.09998,0.130004 0.200012,0.25 0.309998,0.369995 0.06,0.07001 0.119995,0.130005 0.190002,0.200012 0.119995,0.119995 0.26001,0.22998 0.409973,0.330017 0.05005,0.04999 0.110046,0.08997 0.170044,0.140015 0.209961,0.129943 0.429993,0.259948 0.659973,0.349975 0.03003,0.02002 0.06,0.02002 0.100037,0.03998 0.169983,0.07001 0.349975,0.130005 0.539978,0.179993 v 27.730041 z"
     class="st1"
     inkscape:export-filename="C:\Repos\CurriculumVitae\img\school.png"
     inkscape:export-xdpi="93.090912"
     inkscape:export-ydpi="93.090912" /></svg>